<svg xmlns="http://www.w3.org/2000/svg" width="20" height="17.742" viewBox="0 0 20 17.742">
  <g id="Group_217" data-name="Group 217" transform="translate(-1158 -338.629)">
    <path id="heart" d="M20.165,5A6.292,6.292,0,0,0,12,4.36,6.272,6.272,0,0,0,3.84,13.843l6.212,6.222a2.781,2.781,0,0,0,3.9,0l6.212-6.222A6.272,6.272,0,0,0,20.165,5Zm-1.41,7.462-6.212,6.212a.76.76,0,0,1-1.08,0L5.251,12.432a4.244,4.244,0,1,1,6-6,1,1,0,0,0,1.42,0,4.272,4.272,0,0,1,6.082,6Z" transform="translate(1156.012 335.508)" fill="#fff"/>
    <path id="Path_134" data-name="Path 134" d="M1168,341.141h0l-3.719-1.488-4.261,2.275-.59,3.318,1.807,4.217,6.392,5.512,1.09.334,7.6-8.422.145-3.6-1.346-1.861-1.8-1.375-4.827.494-.486.6" fill="#fff"/>
  </g>
</svg>
